<?xml version="1.0" encoding="utf-8"?>
<!-- Generator: Adobe Illustrator 24.0.1, SVG Export Plug-In . SVG Version: 6.00 Build 0)  -->
<svg version="1.1" id="Layer_1" xmlns="http://www.w3.org/2000/svg" xmlns:xlink="http://www.w3.org/1999/xlink" x="0px" y="0px"
	 viewBox="0 0 16 16" style="enable-background:new 0 0 16 16;" xml:space="preserve">
<g>
	<path d="M11,2.1c0.7,0.7,1.1,1.6,1.1,2.6V8c0,1-0.4,1.9-1.1,2.6c-0.7,0.7-1.6,1.1-2.6,1.1H8.1c-0.9,0-1.7-0.3-2.4-0.9V15H3.9V4.7
		c0-1,0.4-1.9,1.1-2.6S6.6,1,7.6,1h0.7C9.4,1,10.3,1.4,11,2.1z M10.4,4.7c0-0.6-0.2-1-0.6-1.4C9.4,2.9,8.9,2.7,8.4,2.7H7.6
		c-0.6,0-1,0.2-1.4,0.6S5.6,4.1,5.6,4.7V8c0,0.6,0.2,1,0.6,1.4C6.6,9.8,7.1,10,7.6,10h0.7c0.6,0,1-0.2,1.4-0.6
		C10.2,9,10.4,8.5,10.4,8V4.7z"/>
</g>
</svg>
