<?xml version="1.0" encoding="utf-8"?>
<svg viewBox="0 0 39.197266 39.151367" version="1.1" xmlns="http://www.w3.org/2000/svg" style="opacity:0.75; width: 40px;">
  <path d="M19.598633 -0.000000 C16.905911 -0.000000 14.366223 0.512527 11.979492 1.537598 C9.592762 2.562668 7.512053 3.962556 5.737305 5.737305 C3.962556 7.512053 2.562668 9.585112 1.537598 11.956543 C0.512527 14.327974 0.000000 16.860013 0.000000 19.552734 C0.000000 22.276055 0.512527 24.823393 1.537598 27.194824 C2.562668 29.566255 3.962556 31.639314 5.737305 33.414062 C7.512053 35.188811 9.592762 36.588699 11.979492 37.613770 C14.366223 38.638840 16.905911 39.151367 19.598633 39.151367 C22.291355 39.151367 24.831043 38.638840 27.217773 37.613770 C29.604504 36.588699 31.685212 35.188811 33.459961 33.414062 C35.234709 31.639314 36.634598 29.566255 37.659668 27.194824 C38.684738 24.823393 39.197266 22.276055 39.197266 19.552734 C39.197266 16.860013 38.684738 14.327974 37.659668 11.956543 C36.634598 9.585112 35.234709 7.512053 33.459961 5.737305 C31.685212 3.962556 29.604504 2.562668 27.217773 1.537598 C24.831043 0.512527 22.291355 -0.000000 19.598633 -0.000000 Z M15.697266 11.750000 L27.447266 19.552734 L15.697266 27.401367 Z M43.098633 39.151367" fill="black"/>
</svg>